<?xml version="1.0" standalone="no"?>
<!DOCTYPE svg PUBLIC "-//W3C//DTD SVG 20010904//EN"
 "http://www.w3.org/TR/2001/REC-SVG-20010904/DTD/svg10.dtd">
<svg version="1.0" xmlns="http://www.w3.org/2000/svg"
 width="196.000000pt" height="196.000000pt" viewBox="0 0 196.000000 196.000000"
 preserveAspectRatio="xMidYMid meet">
<metadata>
Created by potrace 1.14, written by Peter Selinger 2001-2017
</metadata>
<g transform="translate(0.000000,196.000000) scale(0.100000,-0.100000)"
fill="#000000" stroke="none">
<path d="M790 1940 c-477 -102 -800 -507 -786 -985 8 -258 98 -473 276 -655
191 -195 416 -292 685 -294 128 -1 157 2 245 23 262 61 497 242 629 483 76
138 112 272 116 433 4 137 -4 204 -41 325 -97 322 -358 568 -699 660 -112 30
-308 35 -425 10z"/>
</g>
</svg>
